# xmcd CD database file
#
# Track frame offsets:
#	150
#	16663
#	29830
#	47707
#	69132
#	86880
#	99907
#	116313
#	132963
#	147959
#
# Disc length: 2212 seconds
#
# Revision: 0
# Processed by: cddbd v1.5.2PL0 Copyright (c) Steve Scherf et al.
# Submitted via: CDex 1.70beta2
#
DISCID=7d08a20a
DTITLE=Larry Lon - Red Headed Rodeo Queen
DYEAR=1999
DGENRE=Country
TTITLE0=One Place Too Long
TTITLE1=All About Money
TTITLE2=Red Headed Rodeo Queen
TTITLE3=Lady Outlaw
TTITLE4=Mexico, Oh Mexico
TTITLE5=Friendly Outlaw Lovin Man
TTITLE6=Just Been Missing You
TTITLE7=Stranded
TTITLE8=I'm Not The Man
TTITLE9=A Cowboy's Toast
EXTD=YEAR: 1999
EXTT0=
EXTT1=
EXTT2=
EXTT3=
EXTT4=
EXTT5=
EXTT6=
EXTT7=
EXTT8=
EXTT9=
PLAYORDER=
